<?xml version="1.0" encoding="utf-8"?>
<!-- Generator: Adobe Illustrator 27.5.0, SVG Export Plug-In . SVG Version: 6.00 Build 0)  -->
<svg version="1.1" xmlns="http://www.w3.org/2000/svg" xmlns:xlink="http://www.w3.org/1999/xlink" x="0px" y="0px"
	 viewBox="0 0 2281 1753.757" style="enable-background:new 0 0 2281 1753.757;" xml:space="preserve">
<g id="Bg">
	<rect style="opacity:0;fill:#FFFFFF;" width="2281" height="1753.76"/>
</g>
<g id="Layer_1">
	<g>
		<polygon style="fill-rule:evenodd;clip-rule:evenodd;fill:#C1434E;" points="1112.027,586.04 1076.664,589.114 941.525,290.513 
			957.145,257.091 		"/>
		<polygon style="fill-rule:evenodd;clip-rule:evenodd;fill:#862236;" points="1550.063,1115.172 1953.674,1243.021 
			1588.269,1162.801 		"/>
		<polygon style="fill-rule:evenodd;clip-rule:evenodd;fill:#862236;" points="886.103,1140.679 916.195,1533.844 
			1917.965,1533.844 1953.674,1243.021 1588.269,1162.801 1195.283,548.226 		"/>
		<polygon style="fill-rule:evenodd;clip-rule:evenodd;fill:#862236;" points="335.982,1170.207 401.662,1533.844 916.195,1533.844 
			886.103,1140.679 		"/>
		<polygon style="fill-rule:evenodd;clip-rule:evenodd;fill:#862236;" points="875.622,1222.297 1195.283,548.226 547.119,729.476 
			285.125,1254.759 		"/>
		<g>
			
				<rect x="335.95" y="1147.469" transform="matrix(0.9999 -0.0155 0.0155 0.9999 -17.6834 9.6434)" style="fill:#331F29;" width="557.838" height="2.142"/>
			
				<rect x="368.718" y="1063.706" transform="matrix(0.9996 -0.0271 0.0271 0.9996 -28.6327 18.0331)" style="fill:#331F29;" width="563.782" height="2.143"/>
			<rect x="398.288" y="1026.805" style="fill:#331F29;" width="546.683" height="2.141"/>
			
				<rect x="420.995" y="955.666" transform="matrix(0.9964 -0.0848 0.0848 0.9964 -78.5493 63.1664)" style="fill:#331F29;" width="567.407" height="2.14"/>
			
				<rect x="447.685" y="901.996" transform="matrix(0.9964 -0.0847 0.0847 0.9964 -73.8297 65.0511)" style="fill:#331F29;" width="564.861" height="2.141"/>
			
				<rect x="458.251" y="853.614" transform="matrix(0.9874 -0.158 0.158 0.9874 -125.5894 129.6275)" style="fill:#331F29;" width="588.445" height="2.141"/>
			
				<rect x="524.534" y="770.105" transform="matrix(0.9976 -0.0687 0.0687 0.9976 -51.0987 56.4742)" style="fill:#331F29;" width="542.023" height="2.142"/>
			
				<rect x="625.593" y="698.427" transform="matrix(0.998 -0.0639 0.0639 0.998 -42.9204 56.4855)" style="fill:#331F29;" width="472.708" height="2.142"/>
			
				<rect x="664.016" y="658.965" transform="matrix(0.9944 -0.1054 0.1054 0.9944 -64.5988 97.7228)" style="fill:#331F29;" width="456.494" height="2.141"/>
			
				<rect x="809.706" y="983.653" transform="matrix(0.5166 -0.8562 0.8562 0.5166 -427.3793 1212.4417)" style="fill:#331F29;" width="100.77" height="2.141"/>
			
				<rect x="686.159" y="1103.408" transform="matrix(0.4727 -0.8812 0.8812 0.4727 -586.0049 1229.6888)" style="fill:#331F29;" width="96.601" height="2.141"/>
			
				<rect x="968.534" y="785.668" transform="matrix(0.4614 -0.8872 0.8872 0.4614 -157.4792 1314.0692)" style="fill:#331F29;" width="70.056" height="2.14"/>
		</g>
		<polygon style="fill-rule:evenodd;clip-rule:evenodd;fill:#FFE6D5;" points="875.622,1222.297 897.08,1241.356 1195.283,586.04 
			1581.442,1186.331 1979.644,1260.362 1995.875,1240.52 1588.269,1162.801 1195.283,509.754 		"/>
		<polygon style="fill-rule:evenodd;clip-rule:evenodd;fill:#C1434E;" points="1195.283,509.754 1164.846,533.018 858.853,1222.988 
			875.622,1222.297 		"/>
		<polygon style="fill-rule:evenodd;clip-rule:evenodd;fill:#C1434E;" points="285.125,1254.759 308.978,1263.619 897.08,1241.356 
			875.622,1222.297 		"/>
		<polygon style="fill-rule:evenodd;clip-rule:evenodd;fill:#FFC3A2;" points="922.119,1186.331 1554.391,1186.331 1195.283,586.04 
					"/>
		<polygon style="fill-rule:evenodd;clip-rule:evenodd;fill:#C1434E;" points="1195.283,586.04 1189.37,599.033 1554.391,1186.331 
			1581.442,1186.331 		"/>
		<polygon style="fill-rule:evenodd;clip-rule:evenodd;fill:#862236;" points="802.207,1049.603 768.389,482.13 934.968,277.651 
			1080.946,564.016 1080.071,580.444 1060.055,586.04 		"/>
		<polygon style="fill-rule:evenodd;clip-rule:evenodd;fill:#862236;" points="802.207,1049.603 479.81,1029.615 468.75,638.369 
			778.651,586.04 		"/>
		<polygon style="fill-rule:evenodd;clip-rule:evenodd;fill:#862236;" points="415.534,643.994 795.061,603.881 957.145,247.353 
			605.845,346.159 		"/>
		<polygon style="fill-rule:evenodd;clip-rule:evenodd;fill:#FFE6D5;" points="1105.98,573.197 1118.169,569.789 957.145,219.219 
			768.389,589.114 795.061,603.881 957.145,257.091 		"/>
		<polygon style="fill-rule:evenodd;clip-rule:evenodd;fill:#C1434E;" points="415.534,643.994 436.958,653.128 795.061,603.881 
			766.504,584.471 		"/>
		<g>
			
				<rect x="1236.57" y="848.037" transform="matrix(0.014 -0.9999 0.9999 0.014 79.7136 2361.2361)" style="fill:#862236;" width="1.07" height="584.326"/>
			<rect x="968.499" y="1083.874" style="fill:#862236;" width="524.919" height="1.071"/>
			<rect x="984.337" y="1049.069" style="fill:#862236;" width="485.075" height="1.071"/>
			
				<rect x="1003.749" y="987.072" transform="matrix(0.9963 -0.086 0.086 0.9963 -80.4038 107.8496)" style="fill:#862236;" width="416.891" height="1.075"/>
			<polygon style="fill:#862236;" points="1403.539,944.173 1036.702,935.038 1036.727,933.967 1403.564,943.102 			"/>
			
				<rect x="1059.103" y="878.77" transform="matrix(0.9993 -0.0384 0.0384 0.9993 -32.8321 47.036)" style="fill:#862236;" width="300.999" height="1.072"/>
			<rect x="1080.948" y="836.667" style="fill:#862236;" width="256.39" height="1.071"/>
			<polygon style="fill:#862236;" points="1097.832,800.791 1097.777,799.72 1307.969,789.359 1308.023,790.43 			"/>
			<rect x="1130.25" y="728.416" style="fill:#862236;" width="139.869" height="1.071"/>
			
				<rect x="1159.91" y="660.967" transform="matrix(0.9979 -0.0641 0.0641 0.9979 -39.9495 77.8623)" style="fill:#862236;" width="67.032" height="1.069"/>
			<polygon style="fill:#862236;" points="1307.467,1049.689 1296.666,980.455 1297.726,980.287 1308.525,1049.521 			"/>
			<rect x="1173.312" y="837.3" style="fill:#862236;" width="1.071" height="42.006"/>
			
				<rect x="1249.764" y="726.734" transform="matrix(0.9344 -0.3562 0.3562 0.9344 -188.9049 495.269)" style="fill:#862236;" width="1.07" height="67.629"/>
		</g>
		<g>
			<polygon style="fill-rule:evenodd;clip-rule:evenodd;fill:#FFE6D5;" points="987.415,1459.048 974.562,1270.143 
				1098.868,1270.143 1098.868,1459.048 			"/>
			<polygon style="fill-rule:evenodd;clip-rule:evenodd;fill:#331F29;" points="993.136,1452.849 984.485,1281.323 
				1092.151,1276.374 1092.151,1450.072 			"/>
			<polygon style="fill-rule:evenodd;clip-rule:evenodd;fill:#C1434E;" points="1092.151,1276.374 1084.847,1276.374 
				1084.847,1450.285 1092.151,1450.072 			"/>
			<polygon style="fill-rule:evenodd;clip-rule:evenodd;fill:#862236;" points="1044.025,1278.586 1038.318,1450.285 
				1084.847,1450.285 1084.847,1276.374 			"/>
			<polygon style="fill-rule:evenodd;clip-rule:evenodd;fill:#C1434E;" points="974.562,1270.143 969.066,1276.374 
				984.485,1459.048 987.415,1459.048 			"/>
			<rect x="986.368" y="1314.368" style="fill:#FFE6D5;" width="98.478" height="8.565"/>
			<rect x="1010.474" y="1280.081" style="fill:#FFE6D5;" width="2.142" height="38.569"/>
			<rect x="1064.839" y="1276.376" style="fill:#FFE6D5;" width="2.142" height="42.275"/>
		</g>
		<g>
			<polygon style="fill-rule:evenodd;clip-rule:evenodd;fill:#C1434E;" points="674.64,920.12 683.377,730.978 559.38,746.531 
				563.306,926.83 			"/>
			<polygon style="fill-rule:evenodd;clip-rule:evenodd;fill:#331F29;" points="668.786,914.046 673.699,742.373 566.231,752.615 
				569.827,917.731 			"/>
			<polygon style="fill-rule:evenodd;clip-rule:evenodd;fill:#C1434E;" points="566.231,752.615 573.533,752.455 577.134,917.731 
				569.827,917.731 			"/>
			<polygon style="fill-rule:evenodd;clip-rule:evenodd;fill:#C1434E;" points="683.377,730.978 689.007,737.088 677.569,920.056 
				674.64,920.12 			"/>
			
				<rect x="566.847" y="781.517" transform="matrix(0.9972 -0.0743 0.0743 0.9972 -56.5204 48.2252)" style="fill:#C1434E;" width="105.93" height="4.282"/>
			
				<rect x="644.897" y="741.713" transform="matrix(0.9998 -0.0218 0.0218 0.9998 -16.4087 14.262)" style="fill:#C1434E;" width="4.284" height="38.574"/>
			
				<rect x="590.604" y="748.492" transform="matrix(0.9998 -0.0218 0.0218 0.9998 -16.5013 13.0758)" style="fill:#C1434E;" width="4.284" height="32.978"/>
		</g>
		<g>
			<polygon style="fill-rule:evenodd;clip-rule:evenodd;fill:#FFE6D5;" points="1415.019,1459.064 1410.732,1270.158 
				1535.039,1270.158 1526.473,1459.064 			"/>
			<polygon style="fill-rule:evenodd;clip-rule:evenodd;fill:#331F29;" points="1420.698,1452.865 1420.698,1281.338 
				1528.321,1276.389 1519.755,1450.086 			"/>
			<polygon style="fill-rule:evenodd;clip-rule:evenodd;fill:#C1434E;" points="1528.321,1276.389 1521.017,1276.389 
				1512.451,1450.292 1519.755,1450.086 			"/>
			<polygon style="fill-rule:evenodd;clip-rule:evenodd;fill:#C1434E;" points="1410.732,1270.158 1405.236,1276.389 
				1412.089,1459.064 1415.019,1459.064 			"/>
			<rect x="1422.538" y="1314.384" style="fill:#FFE6D5;" width="98.48" height="8.566"/>
			<rect x="1446.643" y="1280.093" style="fill:#FFE6D5;" width="2.142" height="38.574"/>
			<rect x="1501.011" y="1276.387" style="fill:#FFE6D5;" width="2.143" height="42.279"/>
		</g>
		<g>
			<polygon style="fill-rule:evenodd;clip-rule:evenodd;fill:#FFE6D5;" points="1642.226,1459.064 1642.226,1217.397 
				1892.882,1270.174 1884.315,1459.064 			"/>
			<polygon style="fill-rule:evenodd;clip-rule:evenodd;fill:#331F29;" points="1647.249,1452.865 1652.847,1228.578 
				1886.163,1276.404 1877.597,1450.111 			"/>
			<polygon style="fill-rule:evenodd;clip-rule:evenodd;fill:#C1434E;" points="1886.163,1276.404 1878.86,1276.404 
				1870.975,1450.111 1877.597,1450.111 			"/>
			<polygon style="fill-rule:evenodd;clip-rule:evenodd;fill:#862236;" points="1780.567,1254.759 1798.449,1450.111 
				1870.975,1450.111 1878.86,1276.404 			"/>
			<polygon style="fill-rule:evenodd;clip-rule:evenodd;fill:#C1434E;" points="1642.226,1217.397 1638.012,1223.628 
				1638.012,1459.064 1642.226,1459.064 			"/>
			<rect x="1743.011" y="1247.279" style="fill:#FFE6D5;" width="2.142" height="71.387"/>
			<rect x="1688.924" y="1234.095" style="fill:#FFE6D5;" width="2.141" height="84.572"/>
			<rect x="1797.378" y="1258.423" style="fill:#FFE6D5;" width="2.142" height="60.243"/>
			<rect x="1850.421" y="1269.298" style="fill:#FFE6D5;" width="2.142" height="49.369"/>
			<polygon style="fill-rule:evenodd;clip-rule:evenodd;fill:#862236;" points="1670.643,1232.226 1670.643,1452.865 
				1647.249,1452.865 1652.847,1228.578 			"/>
			<rect x="1650.599" y="1314.393" style="fill:#FFE6D5;" width="228.262" height="8.566"/>
		</g>
		<g>
			<polygon style="fill-rule:evenodd;clip-rule:evenodd;fill:#862236;" points="1130.25,1251.076 1146.254,1534.536 
				1337.955,1534.536 1337.955,1254.493 			"/>
			<g>
				<polygon style="fill-rule:evenodd;clip-rule:evenodd;fill:#FFC3A2;" points="1281.249,1534.536 1281.249,1285.364 
					1137.036,1281.323 1146.821,1534.536 				"/>
				<rect x="1211.659" y="1283.427" style="fill:#862236;" width="1.071" height="249.722"/>
				<path style="fill-rule:evenodd;clip-rule:evenodd;fill:#331F29;" d="M1238.256,1417.276c0,39.328-10.943,71.208-24.442,71.208
					c-13.5,0-24.443-31.88-24.443-71.208c0-39.327,10.943-71.208,24.443-71.208
					C1227.313,1346.068,1238.256,1377.95,1238.256,1417.276z"/>
			</g>
			<polygon style="fill-rule:evenodd;clip-rule:evenodd;fill:#862236;" points="1130.25,1234.094 1193.425,1318.653 
				1435.748,1318.653 1337.339,1241.015 			"/>
			<polygon style="fill-rule:evenodd;clip-rule:evenodd;fill:#FFE6D5;" points="1435.748,1318.653 1425.428,1337.608 
				1195.283,1337.608 1193.425,1318.653 			"/>
			<polygon style="fill-rule:evenodd;clip-rule:evenodd;fill:#C1434E;" points="1130.25,1234.094 1131.482,1260.362 
				1195.283,1337.608 1193.425,1318.653 			"/>
			<polygon style="fill-rule:evenodd;clip-rule:evenodd;fill:#C1434E;" points="1146.14,1516.889 1173.847,1516.889 
				1173.847,1534.536 1146.821,1534.536 			"/>
			<rect x="1173.847" y="1516.889" style="fill-rule:evenodd;clip-rule:evenodd;fill:#FFE6D5;" width="218.622" height="17.647"/>
			<polygon style="fill-rule:evenodd;clip-rule:evenodd;fill:#FFE6D5;" points="1379.981,1337.608 1379.981,1516.889 
				1392.469,1516.889 1398.646,1337.608 			"/>
			<polygon style="fill-rule:evenodd;clip-rule:evenodd;fill:#FFE6D5;" points="1202.251,1337.608 1206.851,1516.889 
				1213.813,1516.889 1218.888,1337.608 			"/>
		</g>
		<g>
			<polygon style="fill-rule:evenodd;clip-rule:evenodd;fill:#FFE6D5;" points="1134.557,1115.172 1124.171,850.065 
				1270.118,850.065 1265.346,1115.172 			"/>
			<polygon style="fill-rule:evenodd;clip-rule:evenodd;fill:#C1434E;" points="1124.171,850.065 1119.228,858.304 
				1131.272,1115.172 1134.557,1115.172 			"/>
			<polygon style="fill-rule:evenodd;clip-rule:evenodd;fill:#331F29;" points="1140.727,1104.351 1258.383,1104.351 
				1262.957,858.304 1134.557,858.304 			"/>
			<polygon style="fill-rule:evenodd;clip-rule:evenodd;fill:#C1434E;" points="1262.957,858.304 1257.185,858.304 
				1253.601,1104.351 1258.383,1104.351 			"/>
			<polygon style="fill-rule:evenodd;clip-rule:evenodd;fill:#862236;" points="1173.847,858.304 1162.767,1104.351 
				1140.727,1104.351 1134.557,858.304 			"/>
			<rect x="1204.25" y="858.303" style="fill:#FFE6D5;" width="2.142" height="246.047"/>
			<rect x="1205.66" y="967.932" style="fill:#FFE6D5;" width="49.91" height="2.141"/>
		</g>
		<polygon style="fill-rule:evenodd;clip-rule:evenodd;fill:#FFE6D5;" points="1080.946,552.767 821.073,548.226 807.62,577.012 
			1088.427,571.28 		"/>
		<polygon style="fill-rule:evenodd;clip-rule:evenodd;fill:#C1434E;" points="1088.427,571.28 1080.946,577.012 804.132,584.471 
			807.62,577.012 		"/>
		<g>
			
				<rect x="458.237" y="534.242" transform="matrix(0.9783 -0.2072 0.2072 0.9783 -97.1931 142.5771)" style="fill:#331F29;" width="347.73" height="2.141"/>
			
				<rect x="491.912" y="476.499" transform="matrix(0.9735 -0.2287 0.2287 0.9735 -91.5937 164.8254)" style="fill:#331F29;" width="346.772" height="2.14"/>
			
				<rect x="516.293" y="432.765" transform="matrix(0.9678 -0.2517 0.2517 0.9678 -86.9654 187.7154)" style="fill:#331F29;" width="348.143" height="2.144"/>
			
				<rect x="590.115" y="339.689" transform="matrix(0.9854 -0.17 0.17 0.9854 -47.0912 131.6965)" style="fill:#331F29;" width="310.321" height="2.139"/>
			
				<rect x="805.851" y="302.665" transform="matrix(0.3768 -0.9263 0.9263 0.3768 236.8593 959.5236)" style="fill:#331F29;" width="51.338" height="2.14"/>
			
				<rect x="587.589" y="401.204" transform="matrix(0.5746 -0.8185 0.8185 0.5746 -52.5903 703.3732)" style="fill:#331F29;" width="125.418" height="2.141"/>
			<polygon style="fill:#331F29;" points="606.241,541.487 604.355,540.474 634.534,484.075 636.421,485.088 			"/>
			
				<rect x="439.988" y="583.151" transform="matrix(0.9929 -0.1193 0.1193 0.9929 -65.3994 76.3499)" style="fill:#331F29;" width="329.579" height="2.14"/>
		</g>
		<polygon style="fill-rule:evenodd;clip-rule:evenodd;fill:#C1434E;" points="957.145,219.219 942.416,228.958 757.251,586.04 
			768.389,589.114 		"/>
	</g>
</g>
</svg>
